<svg xmlns="http://www.w3.org/2000/svg" viewBox="0 0 512 512" fill="none">
  <defs>
    <radialGradient id="nexusflow-bg" cx="0" cy="0" r="1" gradientUnits="userSpaceOnUse" gradientTransform="translate(356 150) rotate(137.563) scale(462.42)">
      <stop offset="0" stop-color="#3B4B60" />
      <stop offset="0.54" stop-color="#2E343D" />
      <stop offset="1" stop-color="#14171C" />
    </radialGradient>
    <radialGradient id="nexusflow-glow" cx="0" cy="0" r="1" gradientUnits="userSpaceOnUse" gradientTransform="translate(355 173) rotate(129.111) scale(165.152)">
      <stop offset="0" stop-color="#38D8FF" stop-opacity="0.9" />
      <stop offset="0.44" stop-color="#11BFFF" stop-opacity="0.42" />
      <stop offset="1" stop-color="#11BFFF" stop-opacity="0" />
    </radialGradient>
    <linearGradient id="nexusflow-navy" x1="134" y1="83" x2="304" y2="363" gradientUnits="userSpaceOnUse">
      <stop offset="0" stop-color="#173C7A" />
      <stop offset="1" stop-color="#081D52" />
    </linearGradient>
    <linearGradient id="nexusflow-cyan" x1="296" y1="120" x2="413" y2="301" gradientUnits="userSpaceOnUse">
      <stop offset="0" stop-color="#1ED4FF" />
      <stop offset="1" stop-color="#03A8F4" />
    </linearGradient>
    <linearGradient id="nexusflow-cyan-soft" x1="228" y1="231" x2="363" y2="312" gradientUnits="userSpaceOnUse">
      <stop offset="0" stop-color="#16B6FF" />
      <stop offset="1" stop-color="#7AE8FF" />
    </linearGradient>
  </defs>
  <rect width="512" height="512" rx="112" fill="url(#nexusflow-bg)" />
  <circle cx="356" cy="173" r="165" fill="url(#nexusflow-glow)" />
  <path
    d="M160 216C191 138 267 88 351 88C393 88 432 99 468 121C412 117 361 119 314 130C257 143 203 171 160 216Z"
    fill="url(#nexusflow-navy)"
  />
  <path
    d="M108 384C115 284 168 188 257 129C301 99 349 80 400 73C343 112 294 157 251 215C214 264 180 321 108 384Z"
    fill="url(#nexusflow-navy)"
  />
  <path
    d="M309 222C359 204 404 158 434 103C428 191 392 267 322 316C280 346 231 361 183 357C230 344 271 317 302 279C319 258 332 241 309 222Z"
    fill="url(#nexusflow-cyan)"
  />
  <path
    d="M231 298C282 312 340 311 397 290C353 332 296 355 238 355C204 355 172 347 144 333C176 332 206 321 231 298Z"
    fill="url(#nexusflow-cyan-soft)"
  />
  <path
    d="M190 308C229 326 271 335 314 335C346 335 377 330 404 320C382 381 326 424 258 424C194 424 137 385 114 326C138 334 163 338 190 338C190 328 190 318 190 308Z"
    fill="url(#nexusflow-navy)"
  />
  <circle cx="257" cy="248" r="43" fill="url(#nexusflow-cyan)" />
  <circle cx="257" cy="248" r="43" fill="#18B9F8" fill-opacity="0.28" />
</svg>
